<mxfile host="app.diagrams.net" modified="2024-04-01T08:43:58.591Z" agent="Mozilla/5.0 (Windows NT 10.0; Win64; x64) AppleWebKit/537.36 (KHTML, like Gecko) Chrome/124.0.0.0 Safari/537.36 Edg/124.0.0.0" etag="XdoglqvvaZ0En39Y3jW1" version="24.2.1" type="github">
  <diagram name="第 1 页" id="Oki1IA0zw3A5-vE7QpgQ">
    <mxGraphModel dx="887" dy="314" grid="0" gridSize="10" guides="1" tooltips="1" connect="1" arrows="1" fold="1" page="0" pageScale="1" pageWidth="827" pageHeight="1169" math="0" shadow="0">
      <root>
        <mxCell id="0" />
        <mxCell id="1" parent="0" />
        <mxCell id="VAKV18nR_7jjT1aeklaL-22" style="edgeStyle=orthogonalEdgeStyle;rounded=1;orthogonalLoop=1;jettySize=auto;html=1;exitX=1;exitY=0.5;exitDx=0;exitDy=0;entryX=0.5;entryY=1;entryDx=0;entryDy=0;" parent="1" source="VAKV18nR_7jjT1aeklaL-18" target="VAKV18nR_7jjT1aeklaL-15" edge="1">
          <mxGeometry relative="1" as="geometry" />
        </mxCell>
        <mxCell id="VAKV18nR_7jjT1aeklaL-18" value="" style="rounded=1;whiteSpace=wrap;html=1;dashed=1;fillColor=#fff2cc;strokeColor=#d6b656;" parent="1" vertex="1">
          <mxGeometry x="293.99" y="1081" width="252" height="119" as="geometry" />
        </mxCell>
        <mxCell id="br5jwE6Wy5O4HMgTYWSF-1" value="" style="rounded=1;whiteSpace=wrap;html=1;dashed=1;fillColor=#ffe6cc;strokeColor=#d79b00;" parent="1" vertex="1">
          <mxGeometry x="298" y="500" width="252" height="210" as="geometry" />
        </mxCell>
        <mxCell id="br5jwE6Wy5O4HMgTYWSF-2" value="VIMA" style="rounded=0;whiteSpace=wrap;html=1;fillColor=#d5e8d4;strokeColor=#82b366;" parent="1" vertex="1">
          <mxGeometry x="374" y="630" width="40" height="40" as="geometry" />
        </mxCell>
        <mxCell id="br5jwE6Wy5O4HMgTYWSF-3" value="VFMA" style="rounded=0;whiteSpace=wrap;html=1;fillColor=#d5e8d4;strokeColor=#82b366;" parent="1" vertex="1">
          <mxGeometry x="436.5" y="520" width="40" height="40" as="geometry" />
        </mxCell>
        <mxCell id="br5jwE6Wy5O4HMgTYWSF-4" value="VPU" style="text;html=1;strokeColor=none;fillColor=none;align=center;verticalAlign=middle;whiteSpace=wrap;rounded=0;" parent="1" vertex="1">
          <mxGeometry x="394" y="680" width="60" height="30" as="geometry" />
        </mxCell>
        <mxCell id="br5jwE6Wy5O4HMgTYWSF-5" value="VFALU" style="rounded=0;whiteSpace=wrap;html=1;fillColor=#d5e8d4;strokeColor=#82b366;" parent="1" vertex="1">
          <mxGeometry x="320" y="520" width="40" height="40" as="geometry" />
        </mxCell>
        <mxCell id="br5jwE6Wy5O4HMgTYWSF-6" value="VFMA" style="rounded=0;whiteSpace=wrap;html=1;fillColor=#d5e8d4;strokeColor=#82b366;" parent="1" vertex="1">
          <mxGeometry x="490" y="520" width="40" height="40" as="geometry" />
        </mxCell>
        <mxCell id="br5jwE6Wy5O4HMgTYWSF-7" value="VFDIV" style="rounded=0;whiteSpace=wrap;html=1;fillColor=#d5e8d4;strokeColor=#82b366;" parent="1" vertex="1">
          <mxGeometry x="374" y="575" width="40" height="40" as="geometry" />
        </mxCell>
        <mxCell id="br5jwE6Wy5O4HMgTYWSF-8" value="VPPU" style="rounded=0;whiteSpace=wrap;html=1;fillColor=#d5e8d4;strokeColor=#82b366;" parent="1" vertex="1">
          <mxGeometry x="490" y="630" width="41" height="40" as="geometry" />
        </mxCell>
        <mxCell id="br5jwE6Wy5O4HMgTYWSF-9" value="VIPU" style="rounded=0;whiteSpace=wrap;html=1;fillColor=#d5e8d4;strokeColor=#82b366;" parent="1" vertex="1">
          <mxGeometry x="434.75" y="630" width="40" height="40" as="geometry" />
        </mxCell>
        <mxCell id="br5jwE6Wy5O4HMgTYWSF-10" value="VFALU" style="rounded=0;whiteSpace=wrap;html=1;fillColor=#d5e8d4;strokeColor=#82b366;" parent="1" vertex="1">
          <mxGeometry x="376.5" y="520" width="40" height="40" as="geometry" />
        </mxCell>
        <mxCell id="br5jwE6Wy5O4HMgTYWSF-11" value="VIALU" style="rounded=0;whiteSpace=wrap;html=1;fillColor=#d5e8d4;strokeColor=#82b366;" parent="1" vertex="1">
          <mxGeometry x="320" y="630" width="40" height="40" as="geometry" />
        </mxCell>
        <mxCell id="br5jwE6Wy5O4HMgTYWSF-15" value="VFPU" style="rounded=0;whiteSpace=wrap;html=1;fillColor=#d5e8d4;strokeColor=#82b366;" parent="1" vertex="1">
          <mxGeometry x="436.5" y="575" width="40" height="40" as="geometry" />
        </mxCell>
        <mxCell id="VAKV18nR_7jjT1aeklaL-23" style="edgeStyle=orthogonalEdgeStyle;rounded=1;orthogonalLoop=1;jettySize=auto;html=1;exitX=1;exitY=0.5;exitDx=0;exitDy=0;entryX=0.5;entryY=0;entryDx=0;entryDy=0;" parent="1" source="VAKV18nR_7jjT1aeklaL-1" target="VAKV18nR_7jjT1aeklaL-15" edge="1">
          <mxGeometry relative="1" as="geometry" />
        </mxCell>
        <mxCell id="VAKV18nR_7jjT1aeklaL-1" value="" style="rounded=1;whiteSpace=wrap;html=1;dashed=1;fillColor=#ffe6cc;strokeColor=#d79b00;" parent="1" vertex="1">
          <mxGeometry x="294" y="900" width="252" height="156" as="geometry" />
        </mxCell>
        <mxCell id="VAKV18nR_7jjT1aeklaL-2" value="VIMA" style="rounded=0;whiteSpace=wrap;html=1;fillColor=#d5e8d4;strokeColor=#82b366;" parent="1" vertex="1">
          <mxGeometry x="370" y="976" width="40" height="40" as="geometry" />
        </mxCell>
        <mxCell id="VAKV18nR_7jjT1aeklaL-4" value="YunSuan" style="text;html=1;strokeColor=none;fillColor=none;align=center;verticalAlign=middle;whiteSpace=wrap;rounded=0;" parent="1" vertex="1">
          <mxGeometry x="390" y="1026" width="60" height="30" as="geometry" />
        </mxCell>
        <mxCell id="VAKV18nR_7jjT1aeklaL-5" value="VFALU" style="rounded=0;whiteSpace=wrap;html=1;fillColor=#d5e8d4;strokeColor=#82b366;" parent="1" vertex="1">
          <mxGeometry x="316" y="921" width="40" height="40" as="geometry" />
        </mxCell>
        <mxCell id="VAKV18nR_7jjT1aeklaL-6" value="VFMA" style="rounded=0;whiteSpace=wrap;html=1;fillColor=#d5e8d4;strokeColor=#82b366;" parent="1" vertex="1">
          <mxGeometry x="486" y="921" width="40" height="40" as="geometry" />
        </mxCell>
        <mxCell id="VAKV18nR_7jjT1aeklaL-7" value="VFDIV" style="rounded=0;whiteSpace=wrap;html=1;fillColor=#d5e8d4;strokeColor=#82b366;" parent="1" vertex="1">
          <mxGeometry x="370" y="921" width="40" height="40" as="geometry" />
        </mxCell>
        <mxCell id="VAKV18nR_7jjT1aeklaL-8" value="VPPU" style="rounded=0;whiteSpace=wrap;html=1;fillColor=#d5e8d4;strokeColor=#82b366;" parent="1" vertex="1">
          <mxGeometry x="486" y="976" width="40" height="40" as="geometry" />
        </mxCell>
        <mxCell id="VAKV18nR_7jjT1aeklaL-9" value="VIPU" style="rounded=0;whiteSpace=wrap;html=1;fillColor=#d5e8d4;strokeColor=#82b366;" parent="1" vertex="1">
          <mxGeometry x="430.75" y="976" width="40" height="40" as="geometry" />
        </mxCell>
        <mxCell id="VAKV18nR_7jjT1aeklaL-11" value="VIALU" style="rounded=0;whiteSpace=wrap;html=1;fillColor=#d5e8d4;strokeColor=#82b366;" parent="1" vertex="1">
          <mxGeometry x="316" y="976" width="40" height="40" as="geometry" />
        </mxCell>
        <mxCell id="VAKV18nR_7jjT1aeklaL-12" value="VFPU" style="rounded=0;whiteSpace=wrap;html=1;fillColor=#d5e8d4;strokeColor=#82b366;" parent="1" vertex="1">
          <mxGeometry x="432.5" y="921" width="40" height="40" as="geometry" />
        </mxCell>
        <mxCell id="VAKV18nR_7jjT1aeklaL-13" value="random data" style="rounded=1;whiteSpace=wrap;html=1;fillColor=#f8cecc;strokeColor=#b85450;" parent="1" vertex="1">
          <mxGeometry x="120" y="1039" width="120" height="41" as="geometry" />
        </mxCell>
        <mxCell id="VAKV18nR_7jjT1aeklaL-14" value="compute &amp;nbsp;expected result" style="rounded=1;whiteSpace=wrap;html=1;fillColor=#dae8fc;strokeColor=#6c8ebf;" parent="1" vertex="1">
          <mxGeometry x="330.37" y="1096" width="179.25" height="50" as="geometry" />
        </mxCell>
        <mxCell id="VAKV18nR_7jjT1aeklaL-15" value="compare result" style="rounded=1;whiteSpace=wrap;html=1;fillColor=#e1d5e7;strokeColor=#9673a6;" parent="1" vertex="1">
          <mxGeometry x="600" y="1040" width="120" height="40" as="geometry" />
        </mxCell>
        <mxCell id="VAKV18nR_7jjT1aeklaL-19" value="C++ model" style="text;html=1;strokeColor=none;fillColor=none;align=center;verticalAlign=middle;whiteSpace=wrap;rounded=0;" parent="1" vertex="1">
          <mxGeometry x="384" y="1158" width="68" height="30" as="geometry" />
        </mxCell>
        <mxCell id="VAKV18nR_7jjT1aeklaL-20" value="" style="endArrow=classic;html=1;rounded=1;exitX=0.5;exitY=0;exitDx=0;exitDy=0;entryX=0;entryY=0.5;entryDx=0;entryDy=0;" parent="1" source="VAKV18nR_7jjT1aeklaL-13" target="VAKV18nR_7jjT1aeklaL-1" edge="1">
          <mxGeometry width="50" height="50" relative="1" as="geometry">
            <mxPoint x="380" y="1160" as="sourcePoint" />
            <mxPoint x="430" y="1110" as="targetPoint" />
            <Array as="points">
              <mxPoint x="180" y="980" />
            </Array>
          </mxGeometry>
        </mxCell>
        <mxCell id="VAKV18nR_7jjT1aeklaL-21" value="" style="endArrow=classic;html=1;rounded=1;exitX=0.5;exitY=1;exitDx=0;exitDy=0;entryX=0;entryY=0.5;entryDx=0;entryDy=0;" parent="1" source="VAKV18nR_7jjT1aeklaL-13" target="VAKV18nR_7jjT1aeklaL-18" edge="1">
          <mxGeometry width="50" height="50" relative="1" as="geometry">
            <mxPoint x="380" y="1160" as="sourcePoint" />
            <mxPoint x="430" y="1110" as="targetPoint" />
            <Array as="points">
              <mxPoint x="180" y="1140" />
            </Array>
          </mxGeometry>
        </mxCell>
        <mxCell id="N0mrf-yMHEW6Sfir7Ckb-1" value="vsetvli lmul 4 sew 32" style="rounded=0;whiteSpace=wrap;html=1;" vertex="1" parent="1">
          <mxGeometry x="125" y="1266" width="120" height="45" as="geometry" />
        </mxCell>
        <mxCell id="N0mrf-yMHEW6Sfir7Ckb-2" value="vadd v4 v8 v12" style="rounded=0;whiteSpace=wrap;html=1;" vertex="1" parent="1">
          <mxGeometry x="125" y="1311" width="120" height="39" as="geometry" />
        </mxCell>
        <mxCell id="N0mrf-yMHEW6Sfir7Ckb-3" value="vstore v4" style="rounded=0;whiteSpace=wrap;html=1;" vertex="1" parent="1">
          <mxGeometry x="125" y="1350" width="120" height="39" as="geometry" />
        </mxCell>
        <mxCell id="N0mrf-yMHEW6Sfir7Ckb-4" value="vsetvli lmul 2 sew 16" style="rounded=0;whiteSpace=wrap;html=1;" vertex="1" parent="1">
          <mxGeometry x="125" y="1389" width="120" height="45" as="geometry" />
        </mxCell>
        <mxCell id="N0mrf-yMHEW6Sfir7Ckb-5" value="vadd v4 v8 v12" style="rounded=0;whiteSpace=wrap;html=1;" vertex="1" parent="1">
          <mxGeometry x="125" y="1434" width="120" height="39" as="geometry" />
        </mxCell>
        <mxCell id="N0mrf-yMHEW6Sfir7Ckb-6" value="vstore v4" style="rounded=0;whiteSpace=wrap;html=1;" vertex="1" parent="1">
          <mxGeometry x="125" y="1473" width="120" height="39" as="geometry" />
        </mxCell>
        <mxCell id="N0mrf-yMHEW6Sfir7Ckb-7" value="" style="endArrow=classic;html=1;rounded=0;exitX=1;exitY=0.5;exitDx=0;exitDy=0;entryX=0;entryY=0.5;entryDx=0;entryDy=0;" edge="1" parent="1" source="N0mrf-yMHEW6Sfir7Ckb-5" target="N0mrf-yMHEW6Sfir7Ckb-9">
          <mxGeometry width="50" height="50" relative="1" as="geometry">
            <mxPoint x="245" y="1288" as="sourcePoint" />
            <mxPoint x="342" y="1288" as="targetPoint" />
          </mxGeometry>
        </mxCell>
        <mxCell id="N0mrf-yMHEW6Sfir7Ckb-8" value="vsetvli lmul 4 sew 32" style="rounded=0;whiteSpace=wrap;html=1;" vertex="1" parent="1">
          <mxGeometry x="336.5" y="1266" width="120" height="45" as="geometry" />
        </mxCell>
        <mxCell id="N0mrf-yMHEW6Sfir7Ckb-9" value="vadd v4 v8 v12" style="rounded=0;whiteSpace=wrap;html=1;" vertex="1" parent="1">
          <mxGeometry x="336.5" y="1311" width="120" height="39" as="geometry" />
        </mxCell>
        <mxCell id="N0mrf-yMHEW6Sfir7Ckb-10" value="vstore v4" style="rounded=0;whiteSpace=wrap;html=1;" vertex="1" parent="1">
          <mxGeometry x="336.5" y="1350" width="120" height="39" as="geometry" />
        </mxCell>
        <mxCell id="N0mrf-yMHEW6Sfir7Ckb-11" value="" style="rounded=0;whiteSpace=wrap;html=1;" vertex="1" parent="1">
          <mxGeometry x="336.5" y="1389" width="120" height="45" as="geometry" />
        </mxCell>
        <mxCell id="N0mrf-yMHEW6Sfir7Ckb-12" value="" style="rounded=0;whiteSpace=wrap;html=1;" vertex="1" parent="1">
          <mxGeometry x="336.5" y="1434" width="120" height="39" as="geometry" />
        </mxCell>
        <mxCell id="N0mrf-yMHEW6Sfir7Ckb-13" value="" style="rounded=0;whiteSpace=wrap;html=1;" vertex="1" parent="1">
          <mxGeometry x="336.5" y="1473" width="120" height="39" as="geometry" />
        </mxCell>
        <mxCell id="N0mrf-yMHEW6Sfir7Ckb-20" value="" style="endArrow=classic;html=1;rounded=0;entryX=0;entryY=0.5;entryDx=0;entryDy=0;" edge="1" parent="1" target="N0mrf-yMHEW6Sfir7Ckb-10">
          <mxGeometry width="50" height="50" relative="1" as="geometry">
            <mxPoint x="245" y="1492" as="sourcePoint" />
            <mxPoint x="342" y="1492" as="targetPoint" />
          </mxGeometry>
        </mxCell>
        <mxCell id="N0mrf-yMHEW6Sfir7Ckb-21" value="" style="endArrow=classic;html=1;rounded=0;entryX=0;entryY=0.75;entryDx=0;entryDy=0;exitX=1;exitY=0.5;exitDx=0;exitDy=0;" edge="1" parent="1" source="N0mrf-yMHEW6Sfir7Ckb-4" target="N0mrf-yMHEW6Sfir7Ckb-8">
          <mxGeometry width="50" height="50" relative="1" as="geometry">
            <mxPoint x="255" y="1502" as="sourcePoint" />
            <mxPoint x="403" y="1383" as="targetPoint" />
          </mxGeometry>
        </mxCell>
      </root>
    </mxGraphModel>
  </diagram>
</mxfile>
